<?xml version="1.0" standalone="no"?>
<!DOCTYPE svg PUBLIC "-//W3C//DTD SVG 20010904//EN"
 "http://www.w3.org/TR/2001/REC-SVG-20010904/DTD/svg10.dtd">
<svg version="1.0" xmlns="http://www.w3.org/2000/svg"
 width="300.000000pt" height="200.000000pt" viewBox="0 0 300.000000 200.000000"
 preserveAspectRatio="xMidYMid meet">
<metadata>
Created by potrace 1.10, written by Peter Selinger 2001-2011
</metadata>
<g transform="translate(0.000000,200.000000) scale(0.100000,-0.100000)"
fill="#000000" stroke="none">
<path d="M509 1628 c-3 -7 -6 -48 -3 -48 18 0 51 25 47 36 -4 11 -40 20 -44
12z"/>
<path d="M675 1490 c3 -5 15 -10 25 -10 10 0 22 -4 25 -10 3 -5 13 -10 21 -10
11 0 12 4 5 18 -6 11 -23 19 -46 20 -23 2 -34 -1 -30 -8z"/>
<path d="M2969 1351 c-40 -31 -88 -40 -139 -25 -54 17 -104 19 -79 4 9 -5 34
-12 54 -16 21 -3 47 -7 59 -10 11 -2 47 4 78 12 44 13 58 21 58 35 0 23 -2 23
-31 0z"/>
<path d="M1773 1296 c-16 -9 -15 -11 12 -16 32 -7 55 -3 55 10 0 13 -47 17
-67 6z"/>
<path d="M1760 1198 c-14 -5 -53 -14 -88 -18 -60 -8 -172 -54 -172 -71 0 -5
-16 -23 -36 -41 -32 -29 -114 -138 -114 -152 0 -2 42 38 92 90 51 52 96 94
100 94 4 0 24 12 45 26 25 17 49 25 73 23 19 -1 59 5 89 14 61 19 152 21 221
6 25 -5 75 -13 112 -18 38 -5 80 -17 95 -27 60 -38 128 -97 152 -131 14 -19
39 -49 55 -66 36 -41 61 -87 57 -109 -1 -10 4 -18 12 -18 22 0 63 -135 48
-155 -5 -5 -6 -41 -2 -80 5 -58 8 -65 14 -41 4 15 5 49 1 73 -6 41 -4 48 17
65 13 10 18 17 10 16 -9 -2 -17 10 -23 35 -20 92 -140 279 -234 365 -54 49
-65 64 -56 75 15 18 4 29 -17 18 -22 -11 -185 4 -246 23 -56 18 -167 20 -205
4z"/>
<path d="M677 1140 c-20 -48 -22 -72 -3 -45 13 19 32 85 24 85 -2 0 -11 -18
-21 -40z"/>
<path d="M1839 1142 c-17 -2 -30 -11 -34 -25 -6 -19 -8 -20 -12 -4 -3 13 -10
16 -26 11 -42 -13 -51 -50 -9 -40 64 16 122 18 137 6 17 -14 105 -5 105 12 0
5 -7 7 -16 4 -10 -4 -25 1 -34 9 -10 9 -28 17 -41 17 -13 1 -28 4 -34 8 -5 3
-22 4 -36 2z"/>
<path d="M2040 1083 c0 -5 7 -16 14 -26 11 -15 20 -16 48 -9 30 8 31 9 13 19
-29 15 -75 25 -75 16z"/>
<path d="M1627 1074 c-11 -11 3 -24 18 -17 21 8 18 -11 -5 -32 -11 -10 -20
-26 -20 -37 0 -10 -7 -18 -15 -18 -8 0 -17 -11 -21 -25 -6 -23 -19 -29 -61
-28 -7 1 -13 -6 -13 -13 0 -8 -19 -23 -42 -33 -24 -10 -61 -30 -82 -45 -30
-20 -42 -24 -53 -15 -17 15 -25 7 -17 -15 9 -23 46 -14 101 25 23 16 44 29 46
29 3 0 28 14 55 31 40 25 64 32 124 36 92 7 101 13 17 13 l-64 1 28 24 c15 14
34 25 41 25 8 0 11 10 8 30 -4 28 -3 30 27 26 42 -5 39 5 -8 27 -40 18 -54 21
-64 11z"/>
<path d="M1994 1059 c-8 -14 11 -33 25 -25 6 4 11 11 11 16 0 13 -29 20 -36 9z"/>
<path d="M1792 1038 c-19 -19 -14 -28 13 -28 14 0 25 5 25 10 0 6 8 5 20 -2
25 -16 37 -4 17 17 -19 18 -58 20 -75 3z"/>
<path d="M1950 1040 c0 -5 5 -10 10 -10 19 0 10 -18 -11 -23 -12 -3 -18 -10
-14 -16 9 -15 21 -14 39 4 13 13 13 20 3 35 -13 21 -27 26 -27 10z"/>
<path d="M2140 1040 c0 -8 -10 -10 -26 -7 -22 4 -24 3 -11 -10 16 -16 70 -8
64 10 -5 16 -27 21 -27 7z"/>
<path d="M2010 999 c0 -16 42 -48 63 -49 10 0 17 7 17 20 0 14 -7 20 -21 20
-11 0 -29 5 -40 10 -13 8 -19 7 -19 -1z"/>
<path d="M2180 1003 c1 -14 27 -43 38 -43 21 0 24 21 6 35 -21 16 -44 19 -44
8z"/>
<path d="M1778 963 c5 -27 17 -30 26 -7 9 25 7 30 -12 30 -14 0 -17 -6 -14
-23z"/>
<path d="M1997 963 c-17 -16 -4 -34 41 -54 87 -42 89 -42 57 -10 -17 16 -46
34 -65 39 -19 6 -29 11 -22 11 6 1 12 6 12 11 0 11 -13 13 -23 3z"/>
<path d="M2140 952 c0 -6 8 -28 18 -48 13 -30 14 -38 4 -42 -10 -3 -7 -8 7
-19 12 -8 19 -18 16 -22 -2 -5 4 -16 15 -26 21 -19 28 -7 8 13 -7 7 -8 12 -2
12 6 0 15 -5 22 -12 7 -7 12 -9 12 -6 0 4 20 -2 45 -13 25 -11 50 -17 56 -13
7 4 21 8 33 9 40 4 41 8 6 14 -19 4 -40 3 -47 -2 -7 -5 -21 -2 -37 8 -14 9
-30 14 -36 10 -5 -3 -10 -2 -10 3 0 6 -11 13 -24 16 -13 3 -26 13 -30 21 -5
13 -2 14 15 4 16 -8 24 -8 33 2 8 9 7 11 -6 6 -10 -4 -18 -3 -18 2 0 5 -9 11
-21 14 -12 3 -18 10 -14 16 3 6 1 11 -4 11 -6 0 -11 6 -11 14 0 7 -7 19 -15
26 -10 8 -15 9 -15 2z"/>
<path d="M1888 943 c-10 -2 -18 -8 -18 -11 0 -10 77 -9 86 1 5 4 1 5 -9 1 -10
-3 -17 -1 -17 5 0 11 -11 12 -42 4z"/>
<path d="M2250 937 c0 -12 57 -97 66 -97 2 0 -1 12 -6 26 -6 14 -8 30 -5 34 6
10 -30 50 -45 50 -5 0 -10 -6 -10 -13z"/>
<path d="M1847 899 c6 -6 9 -18 6 -26 -5 -12 -1 -14 17 -8 15 5 20 4 16 -4 -5
-7 1 -11 14 -11 l22 0 -24 29 c-13 17 -32 30 -42 30 -15 1 -17 -2 -9 -10z"/>
<path d="M1635 889 c-14 -5 -7 -8 27 -8 27 -1 48 -6 51 -13 4 -10 6 -10 6 -1
2 22 -50 36 -84 22z"/>
<path d="M1735 869 c3 -18 11 -39 17 -46 6 -8 8 -16 5 -20 -6 -6 -85 -21 -139
-27 -15 -2 -38 -10 -52 -19 -14 -9 -32 -14 -41 -11 -10 4 -14 2 -10 -8 7 -18
-128 -93 -148 -82 -6 4 -9 4 -5 -1 8 -8 -19 -34 -36 -35 -6 0 -1 7 10 15 10 8
14 15 8 15 -13 0 -41 -30 -36 -39 2 -3 -2 -8 -10 -11 -7 -3 -13 -11 -13 -19 0
-8 -9 -19 -20 -25 -27 -15 -35 -27 -35 -53 0 -42 23 -37 71 15 26 29 52 52 58
52 5 0 18 11 28 24 10 12 32 31 48 40 17 10 21 15 10 12 -18 -5 -17 -4 4 14
13 11 31 20 41 20 10 0 20 6 23 14 3 8 23 22 44 32 21 10 41 19 46 21 4 3 5
-10 1 -29 -18 -100 -4 -198 29 -198 5 0 3 8 -7 19 -22 24 -16 140 10 194 l18
37 88 0 c97 0 136 -13 155 -52 17 -34 26 -125 13 -131 -6 -3 -5 -4 2 -3 9 2
13 19 12 51 -1 30 1 43 7 34 10 -16 12 -103 3 -136 -3 -12 -12 -24 -20 -27
-11 -4 -10 0 2 20 9 13 14 27 11 30 -3 3 -8 -4 -12 -16 -6 -18 -12 -21 -37
-16 -26 5 -29 4 -18 -9 8 -9 9 -15 2 -15 -6 0 -14 5 -17 10 -3 6 -21 17 -38
26 -29 13 -30 13 -13 -1 15 -11 16 -15 5 -16 -9 0 -6 -4 6 -9 14 -6 1 -9 -42
-8 -46 1 -63 5 -63 14 0 8 -11 14 -26 14 -14 0 -23 -4 -19 -9 8 -14 -33 -34
-61 -28 -13 2 -24 1 -24 -2 0 -3 -18 -26 -40 -51 l-39 -45 -1 35 c0 23 3 30 9
21 6 -9 11 -10 15 -2 4 6 2 11 -5 11 -7 0 -9 10 -7 25 3 13 1 22 -3 19 -5 -3
-9 -14 -9 -25 0 -10 -4 -19 -9 -19 -5 0 -8 19 -6 43 2 23 4 48 4 56 1 7 7 11
16 8 8 -4 16 -3 19 1 3 4 -4 9 -15 9 -11 1 -23 -6 -26 -15 -4 -9 -11 -21 -17
-25 -8 -6 -8 -10 0 -13 7 -3 10 -14 7 -25 -3 -10 0 -33 7 -50 9 -20 10 -33 3
-37 -29 -20 -20 -41 29 -71 28 -18 52 -30 54 -28 2 1 -2 20 -8 40 -6 20 -9 40
-5 43 10 10 27 -6 27 -26 0 -21 20 -39 20 -18 1 7 11 26 24 42 37 44 40 14 6
-53 -16 -33 -30 -65 -30 -71 0 -22 21 -8 42 30 13 22 30 40 39 40 18 0 98 -50
118 -73 7 -9 22 -17 32 -17 15 0 18 6 15 25 -3 14 0 25 5 25 5 0 9 5 9 10 0
18 -31 10 -51 -12 l-20 -23 11 22 c9 20 7 23 -32 33 -73 19 -75 20 -58 30 13
8 13 10 -1 10 -9 0 -22 7 -29 15 -9 10 -9 15 -1 15 6 0 11 -5 11 -11 0 -5 4
-7 10 -4 12 7 -37 55 -56 55 -8 0 -14 -6 -14 -14 0 -18 -26 -28 -55 -20 -16 4
-27 -1 -39 -17 -8 -13 -19 -20 -23 -16 -11 12 49 66 102 91 27 13 63 23 80 21
116 -12 175 -13 175 -5 0 5 15 8 33 6 24 -3 36 1 49 17 13 17 19 19 31 9 12
-10 15 -8 20 10 2 13 8 32 12 43 7 16 6 18 -6 8 -24 -23 -39 -15 -39 20 0 19
-9 59 -19 90 -11 32 -17 57 -13 57 4 0 24 -11 44 -25 20 -14 40 -25 45 -25 14
0 113 -55 113 -62 0 -5 -7 -8 -16 -8 -13 0 -14 -3 -4 -15 7 -8 9 -22 6 -31 -6
-16 -8 -15 -20 2 -8 10 -12 25 -9 34 4 11 3 12 -4 2 -5 -7 -16 -11 -24 -9 -8
2 -11 2 -8 0 4 -2 5 -14 3 -26 -4 -20 -4 -20 4 -2 9 19 9 19 20 -2 17 -30 15
-34 -11 -29 -14 2 -24 -1 -24 -8 0 -8 9 -11 24 -8 19 4 23 0 23 -22 0 -14 -4
-26 -10 -26 -5 0 -10 -8 -10 -18 0 -27 -25 -23 -26 5 -1 14 4 23 12 23 8 0 14
4 14 8 0 5 -7 9 -15 9 -16 0 -28 -24 -19 -38 3 -5 0 -9 -6 -9 -8 0 -10 17 -8
50 5 55 -3 55 -21 -1 -15 -45 -7 -66 33 -86 37 -19 49 -35 34 -44 -6 -4 0 -14
16 -24 15 -10 30 -15 33 -11 4 4 7 29 8 56 0 28 4 50 9 50 4 0 5 7 2 16 -4 9
-2 13 5 8 8 -4 9 1 4 15 -4 13 -2 21 5 21 15 0 26 -33 12 -38 -8 -2 -8 -10 0
-28 9 -19 9 -30 0 -45 -19 -30 -15 -30 34 -4 37 20 46 21 51 9 3 -7 3 -21 -1
-29 -6 -17 9 -20 20 -4 12 20 37 -34 25 -56 -3 -5 -5 -30 -6 -55 -1 -25 0 -37
3 -27 2 12 9 16 23 12 11 -4 19 -2 19 4 0 6 -4 11 -9 11 -9 0 -24 30 -18 37 8
7 58 -40 54 -51 -3 -7 4 -13 14 -13 17 -2 18 0 5 26 -16 29 -46 59 -46 45 0
-5 -4 -2 -9 6 -17 26 1 32 25 9 13 -12 24 -17 24 -11 0 7 -5 12 -10 12 -6 0
-15 11 -20 24 -5 13 -18 27 -28 30 -11 4 -22 16 -25 26 -3 11 -16 24 -29 29
-20 8 -21 10 -5 16 10 4 24 1 34 -6 9 -8 19 -13 22 -11 3 2 7 -2 10 -9 2 -7
-1 -9 -8 -5 -6 4 -11 3 -11 -2 0 -6 7 -13 16 -16 24 -9 31 -7 14 4 -12 8 -12
10 5 10 18 0 18 1 -3 16 -13 9 -21 22 -18 29 6 16 -29 49 -42 41 -5 -3 -18 6
-28 20 -41 57 -60 67 -71 38 -3 -8 4 -25 16 -38 13 -14 18 -26 13 -30 -12 -7
-56 50 -48 63 3 5 -1 12 -10 15 -9 4 -14 13 -10 21 3 8 0 15 -7 15 -7 0 -4 7
6 15 14 10 25 11 42 3 13 -6 22 -16 21 -22 -2 -6 -1 -8 1 -3 10 16 32 5 58
-28 14 -20 34 -43 44 -53 48 -47 68 -88 75 -151 3 -35 8 -66 10 -68 6 -7 106
19 106 27 0 5 -13 4 -29 -1 -56 -20 -101 32 -65 72 15 17 16 22 5 29 -11 6
-10 9 5 13 16 4 16 5 -3 6 -27 1 -29 17 -6 43 9 10 14 20 12 22 -23 22 -159
107 -214 134 -38 19 -76 42 -83 51 -7 9 -11 10 -7 4 4 -9 1 -11 -9 -7 -9 3
-13 11 -9 17 3 5 1 7 -4 4 -12 -7 -72 10 -88 25 -6 6 -5 12 3 17 11 7 10 10
-3 14 -10 5 -14 3 -9 -4 4 -7 1 -10 -7 -7 -8 3 -13 11 -12 17 2 7 -12 11 -36
11 -22 0 -42 4 -45 9 -3 4 -29 8 -58 7 -49 -1 -54 1 -65 28 -7 15 -13 37 -13
47 0 10 -5 21 -10 24 -7 4 -9 -5 -5 -26z m479 -334 c16 -28 49 -54 68 -55 21
0 29 -12 19 -29 -6 -9 -11 -10 -15 -2 -4 6 -18 11 -31 11 -13 0 -27 5 -31 12
-5 7 -3 8 6 3 8 -5 4 6 -8 23 -13 17 -27 34 -32 37 -14 9 -12 27 2 23 6 -2 16
-13 22 -23z m-84 1 c0 -35 -25 -116 -34 -113 -18 6 -19 39 -3 49 12 6 14 18
10 43 -4 28 -2 35 11 35 9 0 16 -6 16 -14z m90 -81 c10 -12 10 -18 0 -30 -7
-8 -17 -15 -23 -15 -6 0 -7 3 -4 7 4 3 0 17 -8 30 -14 21 -14 23 4 23 10 0 24
-7 31 -15z"/>
<path d="M2106 825 c-9 -25 -7 -47 4 -40 6 3 10 -3 10 -14 0 -11 4 -22 9 -26
6 -3 6 7 0 27 -12 43 -11 51 2 42 7 -4 10 -1 7 6 -7 21 -25 23 -32 5z"/>
<path d="M1460 791 c0 -5 -3 -16 -6 -24 -6 -17 17 -29 35 -17 10 6 10 12 0 29
-14 22 -29 28 -29 12z"/>
<path d="M2044 765 c-25 -22 -26 -24 -8 -22 24 3 58 33 46 41 -4 3 -21 -6 -38
-19z"/>
<path d="M2241 783 c0 -4 11 -30 25 -58 13 -27 21 -40 18 -27 -3 12 -7 34 -8
48 -3 23 -37 59 -35 37z"/>
<path d="M1340 750 c-8 -5 -24 -11 -35 -15 -16 -5 -17 -8 -5 -15 22 -14 26
-13 44 15 18 27 18 28 -4 15z"/>
<path d="M2345 739 c14 -49 27 -78 39 -82 9 -4 8 9 -4 46 -9 28 -22 53 -29 55
-9 3 -11 -2 -6 -19z"/>
<path d="M1651 727 c-8 -10 -7 -19 5 -33 15 -18 15 -18 11 4 -3 12 -1 22 4 22
5 0 9 5 9 10 0 14 -16 12 -29 -3z"/>
<path d="M1701 711 c-9 -15 -7 -20 9 -24 11 -3 20 -1 20 4 0 4 7 6 16 2 14 -5
14 -3 3 16 -17 26 -35 27 -48 2z"/>
<path d="M1811 719 c-1 -19 38 -48 57 -42 25 9 12 31 -18 29 -19 -1 -31 3 -33
13 -4 14 -5 14 -6 0z"/>
<path d="M2972 713 c-14 -6 -102 -137 -102 -152 0 -6 8 -11 17 -11 9 0 14 3
10 6 -8 8 17 57 60 117 19 26 33 47 31 46 -1 0 -9 -3 -16 -6z"/>
<path d="M1250 684 c-16 -40 -31 -116 -26 -122 5 -5 14 15 42 92 17 46 17 56
4 56 -6 0 -15 -12 -20 -26z"/>
<path d="M1690 660 c0 -12 5 -18 10 -15 6 3 10 -1 10 -9 0 -19 -5 -20 -31 -5
-23 12 -49 -3 -49 -29 0 -13 3 -13 19 2 15 13 24 14 46 6 21 -8 25 -13 16 -24
-9 -11 -8 -15 5 -20 21 -8 23 -6 27 25 6 35 52 37 96 5 19 -14 39 -22 44 -19
8 5 7 8 -1 11 -7 2 -12 10 -12 18 0 8 -9 14 -19 14 -11 0 -23 5 -26 10 -8 13
-51 13 -76 0 -16 -9 -21 -7 -28 14 -13 33 -31 42 -31 16z"/>
<path d="M2465 581 c3 -11 2 -22 -3 -25 -11 -7 -3 -56 9 -56 16 0 21 21 14 60
-4 22 -11 40 -17 40 -5 0 -7 -9 -3 -19z"/>
<path d="M2963 575 c-18 -20 3 -30 22 -11 8 8 15 17 15 20 0 11 -25 5 -37 -9z"/>
<path d="M22 558 c-16 -16 -15 -43 1 -56 10 -9 13 -3 12 28 0 22 0 40 0 40 -1
0 -6 -5 -13 -12z"/>
<path d="M1400 555 c-7 -8 -19 -15 -26 -15 -8 0 -14 -4 -14 -10 0 -5 7 -7 15
-4 10 4 15 0 15 -11 0 -9 -4 -13 -10 -10 -5 3 -7 0 -4 -8 3 -9 14 -12 30 -9
18 3 24 0 24 -12 0 -14 -4 -15 -20 -6 -15 8 -20 8 -20 -2 -1 -8 -6 -5 -15 6
-8 11 -26 21 -41 22 -25 3 -25 2 -8 -11 18 -14 18 -14 -2 -15 -11 0 -29 -6
-39 -14 -18 -13 -17 -14 15 -11 19 2 38 4 43 4 4 1 7 8 7 17 0 14 1 14 16 0 8
-9 20 -14 24 -11 5 3 15 -5 21 -17 l13 -23 7 25 c8 28 10 92 2 73 -2 -7 -9
-13 -15 -13 -6 0 -7 7 -4 16 3 8 2 12 -4 9 -14 -9 -12 9 2 23 6 6 9 14 6 17
-3 3 -11 -1 -18 -10z"/>
<path d="M209 517 c-9 -7 -14 -17 -12 -22 2 -6 -13 -17 -33 -24 -26 -10 -33
-16 -23 -22 8 -5 20 -2 31 8 22 19 36 10 18 -12 -10 -12 -10 -15 3 -15 24 0
39 26 35 64 -3 30 -5 33 -19 23z"/>
<path d="M444 497 c3 -17 0 -27 -7 -27 -13 0 12 -20 26 -20 13 0 7 47 -8 60
-14 12 -15 10 -11 -13z"/>
<path d="M877 482 c12 -9 35 -34 52 -55 20 -26 32 -34 37 -25 4 6 2 14 -4 16
-7 2 -10 8 -6 13 3 5 2 8 -3 7 -4 -1 -23 12 -42 30 -18 18 -38 32 -45 32 -6 0
-1 -8 11 -18z"/>
<path d="M2715 460 c9 -28 -43 -50 -61 -26 -11 15 -24 12 -24 -6 0 -5 6 -6 13
-2 8 5 8 2 -2 -9 -17 -21 -8 -21 50 -1 39 15 45 20 41 40 -2 13 -9 24 -14 24
-5 0 -6 -9 -3 -20z"/>
<path d="M282 447 c-12 -13 -19 -27 -15 -30 3 -4 1 -7 -5 -7 -6 0 -9 -7 -5
-15 9 -26 25 -12 38 33 7 23 12 42 11 42 -2 0 -12 -10 -24 -23z"/>
<path d="M327 456 c-10 -26 -9 -29 9 -22 11 4 15 2 11 -8 -3 -8 1 -20 10 -28
14 -11 15 -10 8 12 -5 14 -8 30 -8 37 0 7 -4 10 -8 7 -4 -2 -9 1 -11 8 -3 7
-7 5 -11 -6z"/>
<path d="M864 449 c3 -13 9 -35 12 -49 6 -25 6 -25 -10 -5 -17 20 -17 20 -6
-2 8 -18 8 -23 -3 -23 -17 0 -57 45 -57 64 0 8 -6 16 -14 19 -29 11 -7 -34 36
-73 49 -45 58 -48 58 -20 0 11 5 20 11 20 7 0 9 -10 7 -25 -3 -13 -1 -22 3
-19 5 3 18 0 29 -6 15 -8 20 -8 20 1 0 12 14 4 16 -9 0 -4 4 -15 8 -25 5 -10
3 -24 -5 -34 -12 -15 -12 -16 4 -10 10 4 23 7 29 7 6 0 7 8 3 18 -4 9 -8 25
-10 34 -2 10 -13 27 -24 40 -18 18 -21 19 -21 5 0 -9 -4 -17 -8 -17 -14 0 -52
59 -59 90 -3 17 -10 33 -16 37 -6 4 -8 -3 -3 -18z"/>
<path d="M1774 455 c-4 -8 -3 -27 1 -42 3 -14 2 -29 -4 -32 -17 -11 13 -38 51
-45 37 -7 38 -6 34 21 -2 15 -7 37 -12 48 -7 17 -6 18 8 7 13 -10 17 -10 22 4
9 23 4 25 -24 11 -27 -13 -32 -31 -18 -59 6 -13 5 -18 -5 -18 -19 0 -40 26
-32 40 4 6 1 17 -5 25 -6 8 -9 23 -5 35 7 23 -3 28 -11 5z"/>
<path d="M2548 463 c-15 -4 -16 -8 -7 -25 14 -25 42 -58 50 -58 10 0 8 64 -3
77 -11 13 -12 14 -40 6z"/>
<path d="M2902 428 c-10 -37 -6 -50 8 -28 10 15 14 60 5 60 -2 0 -8 -15 -13
-32z"/>
<path d="M1901 407 c-17 -25 -31 -49 -31 -54 0 -4 5 -1 10 7 7 11 10 11 10 2
0 -7 5 -10 10 -7 6 3 10 2 10 -3 0 -6 -8 -13 -17 -17 -17 -6 -17 -7 1 -21 22
-15 37 -18 35 -6 -4 21 2 42 12 42 6 0 8 -8 5 -18 -5 -13 1 -22 20 -31 20 -9
25 -9 20 1 -3 7 -11 32 -18 56 -10 35 -16 41 -33 36 -19 -5 -19 -4 -2 10 14
11 16 19 9 32 -8 14 -14 10 -41 -29z"/>
<path d="M2471 429 c-13 -10 -22 -19 -20 -20 32 -6 41 -5 46 6 10 27 -2 33
-26 14z"/>
<path d="M2835 443 c-11 -3 -24 -10 -30 -15 -7 -7 -2 -8 14 -3 22 7 23 5 19
-24 -5 -36 2 -40 19 -11 9 13 9 21 2 26 -6 3 -8 12 -5 20 3 8 4 13 3 13 -1 -1
-11 -3 -22 -6z"/>
<path d="M1038 423 c-3 -13 -2 -23 4 -23 5 0 6 -9 3 -21 -6 -18 -5 -19 14 -7
24 14 29 43 7 35 -10 -4 -16 2 -18 16 l-3 22 -7 -22z"/>
<path d="M1128 433 c-19 -5 -25 -33 -8 -33 6 0 10 5 10 10 0 6 19 10 42 10 23
0 39 3 36 6 -9 8 -60 13 -80 7z"/>
<path d="M1366 426 c3 -8 1 -24 -5 -35 -10 -17 -6 -24 25 -48 20 -15 50 -41
68 -57 27 -25 28 -27 6 -16 -29 15 -110 78 -126 99 -10 12 -13 11 -23 -7 -10
-18 -9 -21 4 -16 12 5 14 0 9 -22 -6 -30 -7 -30 68 -37 9 -1 14 -5 12 -9 -3
-4 5 -12 17 -18 15 -8 19 -9 15 -1 -9 14 7 14 21 0 6 -6 16 -8 22 -5 10 7 -16
77 -31 84 -5 2 -8 11 -8 19 0 10 -6 13 -16 9 -8 -3 -13 -2 -11 2 3 4 1 16 -4
27 -7 18 -8 17 -8 -7 -1 -15 -6 -30 -11 -33 -16 -10 -24 23 -10 40 13 16 7 45
-9 45 -6 0 -8 -6 -5 -14z"/>
<path d="M1234 418 c-5 -7 -3 -8 7 -3 12 8 12 6 0 -8 -7 -9 -17 -14 -22 -11
-5 3 -9 0 -9 -5 0 -17 -2 -24 -11 -49 -6 -14 -5 -30 1 -40 8 -14 9 -12 10 11
0 17 5 27 15 27 18 0 19 5 -5 -57 -20 -54 -16 -67 13 -35 23 25 23 100 0 119
-17 13 -16 14 5 9 12 -4 31 -9 42 -12 14 -4 20 -1 20 11 0 12 -5 15 -16 11
-14 -5 -15 -4 -4 9 10 12 10 15 -4 15 -9 0 -16 5 -16 10 0 14 -17 13 -26 -2z"/>
<path d="M1290 415 c7 -8 16 -13 20 -10 5 3 12 0 16 -6 4 -8 9 -7 15 2 9 15
-11 27 -45 28 -15 1 -16 -2 -6 -14z"/>
<path d="M306 404 c-10 -27 -7 -41 12 -46 12 -4 18 1 18 13 0 10 -5 15 -10 12
-5 -4 -7 1 -3 10 3 9 2 19 -2 22 -5 3 -12 -2 -15 -11z"/>
<path d="M2508 408 c-3 -7 6 -21 19 -32 13 -10 22 -25 19 -32 -3 -8 1 -14 9
-14 20 0 19 13 -5 40 -11 13 -20 29 -20 37 0 16 -17 17 -22 1z"/>
<path d="M2921 389 c-7 -17 -10 -33 -7 -36 3 -4 6 -1 6 5 0 7 6 12 14 12 21 0
26 13 12 32 -11 14 -13 13 -25 -13z"/>
<path d="M397 388 c-8 -29 2 -68 17 -68 7 0 10 16 8 45 -4 48 -16 59 -25 23z"/>
<path d="M650 403 c0 -10 52 -63 62 -63 15 0 8 37 -10 53 -19 17 -52 23 -52
10z"/>
<path d="M2716 401 c-3 -5 10 -19 29 -32 19 -13 35 -31 35 -39 0 -13 1 -13 10
0 13 20 13 43 0 35 -11 -7 -40 18 -40 34 0 13 -27 15 -34 2z"/>
<path d="M60 381 c0 -5 -3 -16 -6 -25 -4 -12 0 -16 15 -16 12 0 21 5 21 10 0
6 -5 10 -11 10 -5 0 -8 4 -4 9 3 5 1 12 -5 16 -5 3 -10 2 -10 -4z"/>
<path d="M193 375 c-17 -19 -18 -44 -1 -27 25 25 39 14 32 -23 -5 -28 -3 -35
9 -35 20 0 31 17 17 25 -7 5 -5 12 7 20 10 7 16 15 13 17 -11 9 -60 38 -62 38
-2 -1 -9 -7 -15 -15z"/>
<path d="M581 358 c0 -18 4 -42 9 -53 6 -15 9 -6 9 33 1 28 -3 52 -9 52 -5 0
-10 -15 -9 -32z"/>
<path d="M2194 375 c-4 -8 -9 -13 -14 -10 -12 7 -44 -21 -36 -33 4 -7 12 -12
17 -12 6 0 7 5 4 10 -3 6 -2 10 3 10 5 0 12 -14 16 -31 4 -22 10 -30 21 -25 9
3 15 0 15 -8 0 -8 11 -21 25 -30 l25 -16 0 36 c0 36 -31 89 -53 89 -7 0 -11 8
-9 18 4 21 -6 23 -14 2z"/>
<path d="M2420 375 c-11 -13 -8 -15 19 -15 17 0 31 -4 31 -10 0 -5 12 -10 26
-10 22 0 25 2 14 15 -7 8 -22 15 -34 15 -12 0 -27 5 -32 10 -8 8 -15 6 -24 -5z"/>
<path d="M2675 373 c-15 -12 -16 -14 -3 -10 9 3 18 1 20 -5 4 -12 48 -19 48
-7 0 3 -10 13 -23 22 -20 13 -25 13 -42 0z"/>
<path d="M456 355 c3 -16 15 -39 26 -50 20 -20 20 -20 14 10 -4 17 -16 39 -27
50 -20 20 -20 20 -13 -10z"/>
<path d="M512 372 c-9 -7 -10 -16 -1 -41 l12 -33 13 38 c8 22 14 40 14 42 0 5
-26 1 -38 -6z"/>
<path d="M800 379 c0 -15 31 -78 42 -86 24 -14 38 -11 38 8 0 10 -5 19 -10 19
-6 0 -24 15 -40 33 -16 17 -30 29 -30 26z"/>
<path d="M758 336 c-4 -40 5 -47 23 -15 9 17 8 24 -4 36 -13 13 -15 11 -19
-21z"/>
<path d="M1156 362 c-4 -7 -12 -9 -18 -6 -7 5 -8 2 -4 -5 5 -7 0 -21 -10 -32
-25 -28 -2 -23 25 5 13 14 21 30 19 37 -3 10 -6 10 -12 1z"/>
<path d="M2037 340 c-5 -21 7 -28 18 -10 12 20 25 -1 14 -21 -14 -26 -6 -34
20 -19 28 15 26 25 -8 49 -36 26 -37 26 -44 1z"/>
<path d="M286 342 c-4 -7 -2 -12 3 -12 6 0 10 -5 9 -12 -2 -6 5 -14 15 -16 10
-2 17 2 17 12 0 9 -6 16 -14 16 -8 0 -16 5 -18 12 -3 9 -6 9 -12 0z"/>
<path d="M2955 320 c26 -27 27 -29 6 -25 -12 2 -19 0 -16 -5 3 -5 16 -9 28 -8
17 1 23 8 23 24 0 13 -3 21 -7 18 -4 -2 -10 0 -14 6 -4 6 -11 8 -16 5 -5 -4
-9 -1 -9 4 0 6 -5 11 -12 11 -6 0 1 -13 17 -30z"/>
<path d="M1050 324 c0 -8 7 -17 16 -21 15 -5 15 -7 0 -15 -18 -10 -22 -48 -5
-48 5 0 7 -5 3 -12 -4 -7 -3 -8 5 -4 6 4 9 12 5 17 -3 5 0 16 6 24 7 8 10 26
6 39 -7 27 -36 44 -36 20z"/>
<path d="M2609 331 c7 -5 10 -14 7 -20 -4 -6 -2 -11 4 -11 6 0 9 -4 5 -9 -3
-5 -1 -12 5 -16 5 -3 10 0 10 9 0 8 3 22 7 32 4 11 3 15 -5 10 -6 -3 -13 -2
-17 4 -3 5 -12 10 -18 10 -8 0 -7 -3 2 -9z"/>
<path d="M146 305 c-4 -14 -2 -33 3 -43 8 -13 10 -8 11 26 0 48 -5 54 -14 17z"/>
<path d="M1482 305 c9 -19 16 -24 32 -19 17 5 19 4 9 -7 -18 -19 -16 -39 5
-39 32 0 23 44 -14 68 -43 28 -46 28 -32 -3z"/>
<path d="M1676 322 c-7 -13 50 -76 62 -68 7 4 12 10 12 14 0 12 -69 62 -74 54z"/>
<path d="M2904 309 c-3 -6 -17 -8 -30 -5 -17 5 -24 2 -24 -8 0 -10 6 -13 16
-9 11 4 23 -1 32 -13 14 -18 14 -18 8 0 -4 12 0 23 11 32 10 7 13 14 6 14 -6
0 -15 -5 -19 -11z"/>
<path d="M1860 297 c0 -8 16 -18 35 -24 43 -13 46 1 5 22 -36 18 -40 19 -40 2z"/>
<path d="M2806 299 c4 -8 -1 -9 -17 -4 l-24 6 25 -20 25 -20 -28 3 c-16 2 -32
8 -36 15 -10 15 -83 19 -88 5 -2 -6 6 -14 19 -17 27 -8 38 1 18 13 -8 6 -11
10 -7 10 4 0 19 -7 32 -16 13 -9 34 -17 47 -18 13 -2 38 -6 56 -10 38 -9 43 6
6 22 -14 7 -22 17 -19 22 4 6 11 8 16 5 5 -4 9 -1 9 4 0 6 -9 11 -21 11 -12 0
-17 -4 -13 -11z"/>
<path d="M716 284 c-3 -8 -10 -12 -16 -9 -5 3 -7 0 -4 -9 3 -8 11 -13 19 -10
9 4 11 -2 8 -20 -3 -15 -1 -26 5 -26 11 0 10 45 -1 57 -4 3 -2 12 4 20 7 8 8
13 1 13 -5 0 -13 -7 -16 -16z"/>
<path d="M1652 288 c-7 -7 -12 -20 -12 -30 0 -10 -5 -17 -11 -15 -6 1 -14 -4
-16 -12 -4 -9 0 -11 16 -6 23 7 28 -4 9 -24 -11 -10 -8 -10 15 0 25 11 27 15
13 24 -9 7 -13 15 -9 18 12 12 21 7 26 -14 3 -12 11 -19 17 -17 22 7 15 23
-17 39 -24 12 -29 19 -21 27 7 7 9 14 7 17 -3 2 -11 -1 -17 -7z"/>
<path d="M1942 278 c2 -12 11 -24 21 -26 24 -5 22 25 -4 38 -18 10 -20 9 -17
-12z"/>
<path d="M1289 278 c-1 -7 -1 -17 0 -22 1 -4 -4 -14 -10 -22 -19 -23 -2 -16
21 8 11 12 20 28 20 35 0 17 -30 17 -31 1z"/>
<path d="M2420 281 c0 -5 12 -16 26 -26 15 -9 23 -12 20 -6 -4 6 0 14 8 17 21
8 21 24 0 24 -8 0 -12 -4 -9 -10 3 -5 1 -10 -4 -10 -6 0 -11 5 -11 10 0 6 -7
10 -15 10 -8 0 -15 -4 -15 -9z"/>
<path d="M462 267 c-19 -22 -10 -75 13 -83 19 -6 20 -6 1 -11 -12 -3 -25 2
-33 13 -12 16 -15 17 -23 4 -20 -31 0 -64 23 -41 6 6 19 11 28 11 25 0 34 19
16 33 -16 13 -32 67 -20 67 19 -1 35 -19 28 -30 -5 -8 -4 -11 3 -6 5 3 13 0
16 -6 2 -7 4 1 3 19 0 17 -5 29 -10 26 -4 -2 -14 0 -21 6 -10 8 -16 8 -24 -2z"/>
<path d="M2093 273 c-7 -3 -13 -9 -13 -14 0 -4 8 -5 17 -2 13 5 15 2 10 -12
-7 -17 16 -44 38 -44 6 -1 -1 8 -14 18 l-24 19 21 11 c12 6 22 15 22 20 0 9
-36 11 -57 4z"/>
<path d="M2590 271 c0 -5 11 -18 24 -28 19 -16 21 -23 13 -43 -12 -30 -15 -70
-6 -70 14 0 31 62 25 91 -7 38 -56 81 -56 50z"/>
<path d="M2403 256 c4 -10 7 -20 7 -22 0 -2 7 -4 15 -4 22 0 18 -18 -6 -31
-12 -6 -17 -15 -12 -20 10 -10 53 0 53 13 0 5 -6 6 -12 2 -10 -6 -10 -5 -1 8
11 12 8 20 -19 43 -21 19 -29 22 -25 11z"/>
<path d="M26 216 c25 -44 26 -49 9 -42 -15 5 -17 4 -8 -5 6 -6 9 -17 7 -24 -3
-7 0 -16 6 -20 7 -4 10 0 8 11 -2 11 4 20 16 22 15 3 18 0 12 -21 -4 -17 -1
-27 9 -31 23 -8 19 27 -7 59 -17 22 -19 31 -10 46 7 11 8 19 3 19 -5 0 -12 -6
-14 -12 -3 -9 -14 -3 -32 17 l-26 30 27 -49z"/>
<path d="M2020 250 c-13 -9 -13 -11 0 -20 20 -13 53 -13 45 0 -3 6 -13 10 -21
10 -8 0 -12 5 -9 10 8 12 4 12 -15 0z"/>
<path d="M1385 240 c-3 -6 6 -15 21 -20 15 -6 32 -13 38 -17 6 -3 -1 6 -16 21
-30 29 -34 30 -43 16z"/>
<path d="M1760 234 c0 -7 0 -17 -1 -21 0 -4 5 -9 12 -12 7 -2 9 1 4 9 -6 10
-1 12 24 7 39 -8 33 7 -9 21 -24 9 -30 8 -30 -4z"/>
<path d="M176 232 c-3 -5 -3 -22 -1 -38 2 -16 4 -35 4 -42 1 -10 6 -10 22 -1
28 14 48 -3 29 -26 -10 -12 -10 -15 1 -15 23 0 46 21 31 27 -6 2 -9 10 -6 15
4 6 2 8 -3 5 -6 -4 -14 0 -17 9 -3 9 -12 14 -20 11 -25 -10 -27 6 -4 30 24 26
14 32 -13 7 -16 -15 -17 -14 -12 5 5 21 -1 29 -11 13z"/>
<path d="M305 220 c4 -14 12 -27 16 -28 5 -2 7 -7 4 -12 -7 -11 24 -35 33 -25
4 4 1 10 -5 12 -7 3 -13 9 -13 15 0 5 -10 22 -21 36 l-21 27 7 -25z"/>
<path d="M1114 224 c-10 -8 -12 -12 -4 -8 13 7 13 6 1 -9 -8 -10 -11 -21 -7
-25 9 -8 36 26 36 45 0 17 -2 16 -26 -3z"/>
<path d="M1326 212 c-20 -39 -16 -48 13 -32 15 8 21 8 21 0 0 -6 5 -8 10 -5
14 9 13 26 -2 23 -6 -2 -14 8 -18 22 l-6 25 -18 -33z"/>
<path d="M1488 214 c21 -28 32 -30 32 -5 0 12 -9 20 -24 23 -24 5 -24 4 -8
-18z"/>
<path d="M1850 224 c0 -8 6 -14 13 -13 22 3 37 -1 37 -10 0 -4 -12 -7 -27 -5
-16 2 -22 1 -15 -2 6 -3 12 -13 12 -21 0 -12 -3 -13 -13 -4 -8 6 -17 8 -20 4
-11 -10 -8 -45 3 -38 6 4 8 11 5 16 -4 5 -2 9 4 9 5 0 15 -16 22 -35 13 -35
13 -35 26 -13 7 13 12 30 12 38 0 10 -2 11 -6 3 -6 -15 -33 -17 -33 -3 0 6 5
10 11 10 5 0 7 4 4 10 -4 6 1 7 11 3 11 -4 23 2 35 18 25 32 24 41 -4 34 -12
-4 -35 -1 -50 4 -22 9 -27 8 -27 -5z"/>
<path d="M2680 226 c0 -18 30 -30 44 -16 7 7 4 10 -9 11 -16 1 -15 3 5 9 24 8
23 8 -7 9 -22 1 -33 -4 -33 -13z"/>
<path d="M2747 220 c-3 -11 -1 -20 4 -20 5 0 9 5 9 11 0 6 7 8 16 5 9 -4 13
-2 8 5 -4 8 1 9 15 4 12 -4 21 -2 21 4 0 6 -15 11 -34 11 -25 0 -35 -5 -39
-20z"/>
<path d="M930 222 c-16 -5 -30 -22 -30 -35 0 -5 5 -5 11 -1 6 3 15 0 20 -7 4
-7 11 -10 15 -6 4 4 -1 14 -12 23 -10 8 -14 13 -7 10 6 -4 15 -1 18 5 9 14 4
18 -15 11z"/>
<path d="M2573 213 c-3 -10 -8 -21 -10 -25 -2 -5 5 -8 16 -8 16 0 20 6 19 25
-3 29 -16 33 -25 8z"/>
<path d="M2920 211 c0 -5 3 -17 6 -25 5 -13 9 -14 20 -5 11 9 17 9 28 0 10 -9
16 -9 21 -1 8 13 9 12 -28 28 -33 14 -47 15 -47 3z"/>
<path d="M126 190 c-7 -20 -9 -22 -13 -7 -2 9 -9 17 -14 17 -14 0 -11 -17 8
-35 16 -16 17 -16 25 6 5 12 7 27 5 33 -2 6 -7 -1 -11 -14z"/>
<path d="M630 200 c0 -5 6 -10 14 -10 8 0 16 -7 20 -15 3 -8 1 -15 -5 -15 -6
0 -7 -4 -4 -10 9 -15 22 -12 30 7 4 12 -1 24 -15 35 -25 20 -40 23 -40 8z"/>
<path d="M1674 196 c-3 -9 -15 -16 -26 -16 -10 0 -16 -4 -13 -10 10 -17 34
-11 45 11 7 11 9 23 6 26 -3 3 -8 -2 -12 -11z"/>
<path d="M1972 198 c2 -5 6 -8 10 -6 3 2 15 -6 27 -16 22 -20 37 -16 28 7 -6
16 -70 30 -65 15z"/>
<path d="M2163 189 c-1 -15 5 -19 27 -19 31 0 48 -15 28 -23 -7 -3 -3 -6 10
-6 12 -1 22 3 22 8 0 6 9 8 20 6 11 -2 22 0 25 4 5 9 -42 21 -81 21 -13 0 -24
4 -24 9 0 18 -26 18 -27 0z"/>
<path d="M740 165 c0 -27 4 -35 18 -35 15 0 15 -2 2 -11 -12 -8 -10 -9 8 -4
13 4 22 2 22 -5 0 -6 5 -8 10 -5 17 10 11 36 -7 34 -33 -3 -43 1 -43 17 0 17
22 16 79 -2 18 -5 23 -4 19 7 -3 8 -20 15 -39 16 -18 1 -35 6 -37 12 -2 6 -10
11 -18 11 -9 0 -14 -11 -14 -35z"/>
<path d="M1207 193 c-13 -12 -7 -34 14 -56 l20 -22 -15 36 c-8 20 -12 39 -9
43 4 3 4 6 1 6 -2 0 -8 -3 -11 -7z"/>
<path d="M1403 187 c2 -6 10 -11 16 -9 7 1 10 -2 6 -8 -3 -5 -13 -10 -21 -10
-8 0 -14 -7 -14 -16 0 -8 -4 -13 -9 -9 -5 3 -12 2 -15 -3 -2 -4 7 -9 21 -10
15 -1 23 1 20 5 -4 3 7 16 24 28 l30 23 -31 11 c-24 8 -30 8 -27 -2z"/>
<path d="M1754 176 c-10 -8 -15 -18 -11 -23 5 -4 15 1 23 11 10 15 16 16 27 8
13 -11 27 -7 27 7 0 13 -47 10 -66 -3z"/>
<path d="M2534 176 c-4 -9 -12 -15 -19 -13 -6 3 -20 -9 -30 -25 -10 -17 -14
-29 -9 -26 48 22 65 34 70 50 7 25 -3 37 -12 14z"/>
<path d="M1069 178 c-7 -23 -4 -40 7 -55 13 -16 14 -14 12 20 -1 20 -6 37 -10
37 -4 0 -8 -1 -9 -2z"/>
<path d="M1934 105 c-12 -51 -4 -58 17 -17 8 15 20 31 27 35 16 10 6 27 -16
27 -12 0 -21 -13 -28 -45z"/>
<path d="M2036 142 c-10 -16 12 -35 30 -27 18 8 18 8 1 12 -9 3 -15 9 -12 14
4 5 2 9 -4 9 -5 0 -12 -4 -15 -8z"/>
<path d="M2857 143 c-12 -11 -8 -23 7 -23 7 0 19 7 26 15 10 12 9 15 -7 15
-11 0 -23 -3 -26 -7z"/>
<path d="M2130 122 c0 -11 7 -23 16 -26 11 -4 15 0 12 16 -4 28 -28 36 -28 10z"/>
<path d="M2294 119 c-19 -22 -19 -22 6 -14 20 6 23 5 13 -6 -18 -18 -16 -34 1
-20 18 15 27 61 11 61 -6 0 -20 -10 -31 -21z"/>
<path d="M2808 123 c-21 -5 -24 -19 -5 -26 10 -4 10 -7 0 -18 -10 -10 -16 -10
-25 -1 -12 12 -38 -1 -38 -18 0 -17 37 -16 58 0 22 18 48 71 34 69 -4 -1 -15
-3 -24 -6z"/>
<path d="M1184 103 c-12 -20 -8 -43 8 -43 6 0 8 9 5 20 -3 12 1 24 11 30 14 8
14 9 2 10 -8 0 -20 -8 -26 -17z"/>
<path d="M1540 112 c0 -5 -10 -14 -22 -21 -23 -11 -23 -11 2 -6 14 2 35 5 48
5 13 0 22 6 22 15 0 9 -9 15 -25 15 -14 0 -25 -4 -25 -8z"/>
<path d="M1970 102 c0 -10 33 -42 43 -42 12 0 8 21 -7 36 -16 15 -36 19 -36 6z"/>
<path d="M1740 90 c0 -5 7 -10 15 -10 8 0 15 -4 15 -9 0 -13 39 -21 46 -10 3
6 14 7 25 4 11 -4 19 -2 19 4 0 6 -20 11 -44 11 -25 0 -48 5 -51 10 -3 6 -10
10 -16 10 -5 0 -9 -4 -9 -10z"/>
<path d="M2182 92 c-10 -3 -7 -8 7 -19 21 -14 41 -10 41 8 0 6 -5 7 -11 3 -6
-3 -14 -2 -18 3 -3 6 -12 8 -19 5z"/>
<path d="M2860 65 c-36 -38 -36 -54 1 -33 28 16 48 39 49 56 0 20 -14 14 -50
-23z"/>
<path d="M2398 82 c-30 -4 -48 -32 -20 -32 19 0 61 26 52 32 -3 2 -17 2 -32 0z"/>
<path d="M2506 77 c-25 -19 -32 -77 -8 -77 15 0 15 2 2 10 -9 6 -11 10 -3 10
7 0 10 6 7 14 -3 8 3 19 15 26 21 11 29 30 13 30 -5 0 -16 -6 -26 -13z"/>
<path d="M2570 76 c0 -3 5 -17 10 -32 11 -29 23 -24 35 14 5 19 3 22 -19 22
-14 0 -26 -2 -26 -4z"/>
<path d="M445 50 c-4 -6 6 -15 20 -20 32 -12 35 -12 35 -2 0 14 -48 33 -55 22z"/>
<path d="M1700 47 c14 -6 28 -16 32 -21 4 -6 10 -7 14 -4 11 12 -23 38 -48 37
l-23 0 25 -12z"/>
<path d="M1132 43 c-7 -3 -17 -13 -22 -24 -9 -16 -7 -19 11 -19 14 0 19 5 16
14 -3 8 -1 17 6 19 7 2 10 7 7 9 -3 3 -11 3 -18 1z"/>
<path d="M376 21 c5 -5 25 -12 44 -16 33 -7 34 -6 15 9 -21 16 -76 23 -59 7z"/>
<path d="M2160 9 c0 -11 67 -12 74 -1 2 4 -13 8 -35 8 -21 1 -39 -2 -39 -7z"/>
</g>
</svg>
